<svg id="Layer_1" data-name="Layer 1" xmlns="http://www.w3.org/2000/svg" viewBox="0 0 170.79 108.01"><defs><style>.cls-1{fill:#e9f9ff;}.cls-2{fill:#f9c243;}</style></defs><title>logo</title><path class="cls-1" d="M253.55,215.75H160.18S188.3,207.43,180,180a13.91,13.91,0,0,0-7.63-8c-11.58-5-24.46,5-22.51,17.48a26.29,26.29,0,0,0,1.57,5.59s-16.42-3.34-17.51-21.35a32.27,32.27,0,0,1,14.27-28.62,42.53,42.53,0,0,1,19.53-6.85s25.83-4.58,45.17,24.53a76.87,76.87,0,0,1,6.91,13.29C223,183.88,232.79,203.8,253.55,215.75Z" transform="translate(-82.76 -107.74)"/><path class="cls-2" d="M164.85,114.87c-1.54-.27-3.09-.48-4.65-.66-2.6-.3-5.21-.5-7.82-.55-11.91-.26-23.77,2.2-33.75,8.67a62.68,62.68,0,0,0-13.79,12c-10.42-7-18.79-26.64-18.79-26.64-8.87,20.24,2.46,43.53,7.36,52.08a54.06,54.06,0,0,0-.32,11.25,46.13,46.13,0,0,0,3.15,13.62,47.7,47.7,0,0,0,18.82,22.68c8.38,5.3,19.81,8.69,34.78,5.6,0,0,15.1-3.18,21.86-11.92,0,0-29.31,8.2-40.62-14.29a33.82,33.82,0,0,1,1.26-32.29,45.67,45.67,0,0,1,57.39-18.6c9,3.9,18.88,11.17,28.06,24.25C217.79,160.12,209.6,122.5,164.85,114.87Z" transform="translate(-82.76 -107.74)"/></svg>